<svg width="100" height="100" viewBox="0 0 100 100" fill="none" xmlns="http://www.w3.org/2000/svg">
<rect width="100" height="100" fill="#0D0D0E"/>
<path d="M70.5511 43.75H60.5966C60.4148 42.4621 60.0436 41.3182 59.483 40.3182C58.9224 39.303 58.2027 38.4394 57.3239 37.7273C56.4451 37.0151 55.4299 36.4697 54.2784 36.0909C53.142 35.7121 51.9072 35.5227 50.5739 35.5227C48.1648 35.5227 46.0663 36.1212 44.2784 37.3182C42.4905 38.5 41.1042 40.2273 40.1193 42.5C39.1345 44.7576 38.642 47.5 38.642 50.7273C38.642 54.0455 39.1345 56.8333 40.1193 59.0909C41.1193 61.3485 42.5133 63.053 44.3011 64.2045C46.089 65.3561 48.1572 65.9318 50.5057 65.9318C51.8239 65.9318 53.0436 65.7576 54.1648 65.4091C55.3011 65.0606 56.3087 64.553 57.1875 63.8864C58.0663 63.2045 58.7936 62.3788 59.3693 61.4091C59.9602 60.4394 60.3693 59.3333 60.5966 58.0909L70.5511 58.1364C70.2936 60.2727 69.6496 62.3333 68.6193 64.3182C67.6042 66.2879 66.233 68.053 64.5057 69.6136C62.7936 71.1591 60.7481 72.3864 58.3693 73.2955C56.0057 74.1894 53.3314 74.6364 50.3466 74.6364C46.1951 74.6364 42.483 73.697 39.2102 71.8182C35.9527 69.9394 33.3769 67.2197 31.483 63.6591C29.6042 60.0985 28.6648 55.7879 28.6648 50.7273C28.6648 45.6515 29.6193 41.3333 31.5284 37.7727C33.4375 34.2121 36.0284 31.5 39.3011 29.6364C42.5739 27.7576 46.2557 26.8182 50.3466 26.8182C53.0436 26.8182 55.5436 27.197 57.8466 27.9545C60.1648 28.7121 62.2178 29.8182 64.0057 31.2727C65.7936 32.7121 67.2481 34.4773 68.3693 36.5682C69.5057 38.6591 70.233 41.053 70.5511 43.75Z" fill="white"/>
</svg>
